<svg xmlns="http://www.w3.org/2000/svg" viewBox="0 0 444.08 390.59"><defs><style>.b1dbbe8c-f7c5-4827-a186-70f3c6c830d3{fill:#c52126;}.a9cd19f8-e6cd-4c40-b800-47de37da5d70{fill:#1d224f;}</style></defs><g id="a06ee971-7f44-492c-adbf-5401cbd2553d" data-name="Layer 2"><g id="f2e9d9d3-178a-4f65-933a-5a6bfd2e37c1" data-name="Layer 1"><path class="b1dbbe8c-f7c5-4827-a186-70f3c6c830d3" d="M99.92,181.31c.9-1.86,1.76-3.73,2.7-5.56.81-1.57,1.74-3.08,2.53-4.66a2.65,2.65,0,0,0,.07-1.51c-.06-.36-.55-.65-.58-1a9.2,9.2,0,0,1,.16-1.8,8.17,8.17,0,0,1,1.47.67,9.6,9.6,0,0,1,1.21,1.39,4.25,4.25,0,0,1,2.94-3.55l-.42,3c2,.13,3.94.17,5.83.43a4.48,4.48,0,0,1,2.28,1.08c1.57,1.45,3,3.1,4.51,4.56,1.14,1.06,2.43,1.95,3.79,3l-1.6.94,6.64,2.85-2,1.68a17.19,17.19,0,0,0,2.82.8c3.61.35,7.24.6,10.86.91,1.33.12,2.67.26,4,.45a7.2,7.2,0,0,1,4.78,2.77l1,1.23c.42-1,.72-1.66,1-2.33.93-2.31,1.78-2.86,4.2-2.68a4.06,4.06,0,0,1,4,3.4c.32,1.9.43,3.85.59,5.78.22,2.72.33,5.46.63,8.17a5.21,5.21,0,0,0,2.3,4c.87.58.71,1.47-.31,1.52a7.24,7.24,0,0,1-3.55-.61c-3.36-1.73-4.36-4.81-4.35-8.38,0-1.74,0-3.48-.09-5.22,0-1-.31-2.06-1.64-2.08s-1.71.83-1.91,2c-.46,2.69-1.13,5.34-1.5,8a5.38,5.38,0,0,0,.62,2.78c1,2.09,1,2.09-.86,3.52-3.09,2.41-6.13,4.9-9.18,7.36a6.65,6.65,0,0,0-.73.81,9.33,9.33,0,0,0,1.05.92c2.23,1.37,1.68,3.12.37,5.12a1.66,1.66,0,0,1-2.61.31c-2.48-1.79-3.47-5.56-1.81-8.13a57.2,57.2,0,0,1,4.37-5.26c.83-1,2.17-1.83,1.42-3.44s-2.35-1.53-3.78-1.32c-2.11.31-4.18.87-6.3,1.19-3.76.58-7.35.18-10.48-2.27a12,12,0,0,0-1.36-.8c-.77,2.49-2.49,3.64-4.78,4.36a27.05,27.05,0,0,0-5.11,2.41A4.33,4.33,0,0,0,111,213c.2,1,.7,1.79,1.84,1.82,1.69.05,1.9,1.4,2.25,2.56.41,1.36.59,2.79-.5,3.93a1.43,1.43,0,0,1-1.4,0c-1.85-1.87-3.62-3.82-5.38-5.78a1.27,1.27,0,0,1-.14-.86c.24-2.47.41-5,.79-7.41a9.59,9.59,0,0,1,3.37-5.83c.23-.2.43-.42.67-.59,2.22-1.55,2.9-3.47,1.7-6-1.39-3-1.39-6.18-1-9.38a4.9,4.9,0,0,0-1.54-4.46,2.18,2.18,0,0,0-3-.34c-.62.42-1.19.89-1.81,1.32a17.1,17.1,0,0,1-2.35,1.56c-2,1-3.33.55-4.53-1.28Z"/><path class="b1dbbe8c-f7c5-4827-a186-70f3c6c830d3" d="M179.37,125.79c1.62-2.19,3.23-4.39,4.85-6.57,11.85-15.88,22.21-32.65,30.16-50.84a93.61,93.61,0,0,0,7.16-23,6.15,6.15,0,0,1,.31-.78c.39,1.49.72,2.63,1,3.79,3.91,16.33,11.19,31.2,19.72,45.54A340.36,340.36,0,0,0,264,125c.3.39.56.79,1.14,1.62-28.76,1.16-57.12,1.41-85.47-.3Z"/><path class="a9cd19f8-e6cd-4c40-b800-47de37da5d70" d="M224.8,44l2.56,2.14a367.3,367.3,0,0,0,56.94,40c15.74,9,31.83,17.44,47.76,26.13,1.78,1,3.55,2,5.32,3,.41.24.77.54,1.47,1-1.91.41-3.44.8-5,1.06q-15.64,2.67-31.31,5.27a2.87,2.87,0,0,1-2-.4c-17.46-13.58-34.22-27.95-49.36-44.12-9.23-9.85-18-20-25.25-31.51-.49-.78-.92-1.6-1.37-2.4Z"/><path class="a9cd19f8-e6cd-4c40-b800-47de37da5d70" d="M106.15,115.3c2.74-1.51,5.47-3,8.22-4.52,14.8-8.06,29.75-15.88,44.38-24.24,16.47-9.41,32.48-19.57,47.41-31.32,4.1-3.22,7.86-6.87,11.77-10.33.48-.42.88-.92,1.32-1.38l.31.22c-.37.61-.72,1.21-1.11,1.81-9.38,14.53-20.66,27.51-32.84,39.74A455.07,455.07,0,0,1,144,121.74a2.72,2.72,0,0,1-1.87.58c-11.54-2-23.08-4.15-34.61-6.25-.42-.08-.83-.25-1.24-.37Z"/><path class="b1dbbe8c-f7c5-4827-a186-70f3c6c830d3" d="M301.33,201.7a24.89,24.89,0,0,1-3.32,2.88c-1.84,1.08-3.91,1.76-5.72,2.88a9.93,9.93,0,0,0-3.27,3.07c-1.2,2-.18,3.78,2.06,4.3a1.84,1.84,0,0,1,1.12.64,6.4,6.4,0,0,1,.62,5.31c-.34.94-1.16,1.25-1.87.48-1.78-1.93-3.45-4-5.14-6a1,1,0,0,1-.25-.69c.34-4.4-.3-9.07,3.48-12.51,1.07-1,2.08-2,3.16-3a1.52,1.52,0,0,0,.52-1.94,25.51,25.51,0,0,1-1.42-4.71,30.89,30.89,0,0,1-.3-5.77c.07-2,.09-3.88-1.31-5.49-1.09-1.24-1.84-1.43-3.23-.53a26.13,26.13,0,0,0-2.7,2.11,4.21,4.21,0,0,1-4.06.84c-1.33-.36-1.9-1.18-1.43-2.46,1.05-2.88,1.9-5.94,3.52-8.5,1.06-1.67,2.11-2.77.71-4.64-.25-.34,0-1,0-1.56l.46-.28,2.52,2.87a12.25,12.25,0,0,1,.82-2.46c.24-.41,1-.54,1.46-.8a4.13,4.13,0,0,1,.35,1.31c-.09,1,.45,1.23,1.23,1.29,1.59.12,3.19.14,4.77.36a3.53,3.53,0,0,1,1.9.89c2.07,2,4,4.12,6.08,6.15a21.42,21.42,0,0,0,2.26,1.68l-2.19.74c2.53,1.09,4.79,2.06,7.06,3l-.09.48-2,1.13a20.36,20.36,0,0,0,3.15.85c4.36.43,8.72.82,13.08,1.1a8.53,8.53,0,0,1,6.54,3.35,2.78,2.78,0,0,0,.43.41,1.62,1.62,0,0,0,.41.17c.47-.95.92-1.92,1.42-2.87a4.08,4.08,0,0,1,6-1.06,6.5,6.5,0,0,1,2.18,5c.07,3.08.12,6.17.33,9.24.17,2.47.76,4.83,2.93,6.44a2.55,2.55,0,0,1,.44.63,3.11,3.11,0,0,1-3.6.64,7.33,7.33,0,0,1-5.16-7c-.13-2.18-.17-4.37-.3-6.56a3.1,3.1,0,0,0-.37-1.7,2.6,2.6,0,0,0-1.68-.92c-.36,0-1,.68-1.09,1.14-.26,1.11-.19,2.28-.42,3.4a23.37,23.37,0,0,1-1.25,4.55,3.09,3.09,0,0,0,.18,3.19c1.48,2.46,1.12,3-1.21,4.63-2.95,2.09-5.66,4.51-8.46,6.81a5.28,5.28,0,0,0-.79,1.09,4.53,4.53,0,0,0,.63.55c2.23,1.3,2.46,3.73.5,5.48a1.46,1.46,0,0,1-2.25,0,39.46,39.46,0,0,1-3-4.36,2.1,2.1,0,0,1,0-1.72c1.17-2.45,2.15-5,4.52-6.68a8.81,8.81,0,0,0,2-1.56,2.1,2.1,0,0,0-1.14-3.66,36.78,36.78,0,0,0-5.32.42c-2.41.25-4.83.83-7.22.7-1.8-.1-3.57-1-5.31-1.7A10.29,10.29,0,0,1,301.33,201.7Z"/><path class="a9cd19f8-e6cd-4c40-b800-47de37da5d70" d="M254.05,41.85V33.47c0-1.39,0-2.78,0-4.18-.06-3.91-.06-4.12-4-4.12a40.61,40.61,0,0,0-8.7,1c-3.49.75-6.89,1.92-10.32,2.9l-2.08.58c-.06-.55-.13-.93-.13-1.31,0-5.07,0-10.15,0-15.22A1.45,1.45,0,0,1,230,11.46c6.65-1.93,13.38-3,20.31-1.94.58.09,1.17.18,1.75.33,3.24.86,3.55,1.28,3.69,4.65.1,2.43.25,4.87.33,7.3a1.45,1.45,0,0,0,1.1,1.51c8.82,3.34,17.37,3.28,25.6-1.79a5.34,5.34,0,0,1,2.31-.73,28.4,28.4,0,0,1-7.17,12.39C271.73,39.32,261.87,43,254.05,41.85Z"/><path class="a9cd19f8-e6cd-4c40-b800-47de37da5d70" d="M225.43,40.36h-1.85c-.44,0-.87,0-1.4-.08,0-.51-.07-1-.07-1.38,0-8.2-.06-16.4,0-24.6,0-1.83-.32-3.27-1.79-4.42-1.8-1.4-1.73-3.19-.91-5.1a3.94,3.94,0,0,1,3.81-2.62,4.74,4.74,0,0,1,4.48,2.92c.76,1.56.78,3.29-.58,4.39-1.73,1.41-1.76,3.1-1.75,5,.05,8,0,16,0,24Z"/><path class="b1dbbe8c-f7c5-4827-a186-70f3c6c830d3" d="M294.68,212.48c1.42-2.47,2-6,5.36-7.7.46-.23,1.17,0,1.76,0-.06.59.09,1.34-.22,1.73-1.05,1.32-2.3,2.48-3.41,3.75-1.53,1.76-1.1,3.25,1.12,4,.67.24,1.52,2.21,1,2.76a2.2,2.2,0,0,1-1.88.37A5.67,5.67,0,0,1,294.68,212.48Z"/><path class="b1dbbe8c-f7c5-4827-a186-70f3c6c830d3" d="M325.8,215.64c.37-.74.81-1.85,1.42-2.85a33,33,0,0,1,2.54-3.65,2.86,2.86,0,0,1,1.62-.94,1.72,1.72,0,0,1,1.36.63c.17.22,0,1-.3,1.26-1.1,1.22-2.34,2.3-3.42,3.52-1.37,1.55-.78,3.16,1.25,3.64a2.37,2.37,0,0,1,1.17,2.87c-.42,1-1.26.8-2,.52C327.78,220,325.76,217.42,325.8,215.64Z"/><path class="a9cd19f8-e6cd-4c40-b800-47de37da5d70" d="M99.92,122.45c.17-1.35,1-1.41,2.11-1.16,16.2,3.49,32.55,6.07,49,8,29.3,3.41,58.7,5.15,88.2,4.11,13.62-.48,27.23-1.44,40.81-2.57a516.76,516.76,0,0,0,62.38-9.18c.72-.15,1.46-.25,2.41-.41,0,2.91.05,5.73-.06,8.53,0,.35-.87.85-1.4,1-5.06,1.06-10.11,2.22-15.21,3-11.93,1.89-23.86,3.83-35.84,5.36a477.08,477.08,0,0,1-49.53,3.72c-5.53.13-11,.3-16.58.38-1.06,0-1.34.34-1.34,1.37q0,18.43,0,36.88c0,1.14.41,1.47,1.46,1.5,4.63.1,9.26.2,13.88.39,4.11.17,7.86,1.26,10.64,4.58a11.25,11.25,0,0,1,.76.92c.21.32.36.7.74,1.45.69-1.24,1.3-2.26,1.83-3.31.72-1.43.63-3.41,2.38-4.12a10.25,10.25,0,0,1,4.14-.92c3.44.15,6.36,2.94,7.14,6.61a21.65,21.65,0,0,1,.29,3.7c.2,5,.3,10,.61,15.05a23.08,23.08,0,0,0,1.14,4.92,5.89,5.89,0,0,0,3.57,4.13,5.82,5.82,0,0,1,1.17.88,12.58,12.58,0,0,1-1.77,1,7.84,7.84,0,0,1-6.86-1A12.94,12.94,0,0,1,259.77,206c-.06-2.63.18-5.27.24-7.91a14,14,0,0,0-.18-2.82,3.31,3.31,0,0,0-4.89-2.14,1.58,1.58,0,0,0-.59,1.08c-.15,1.44-.27,2.88-.29,4.32,0,3.12-.42,6.15-2.16,8.85-1.09,1.7-1.25,3.3.27,4.84a4.25,4.25,0,0,1,.58.87c1.49,2.46,1,4.51-1.5,5.87a59.82,59.82,0,0,0-13.47,10.3l-.32.32c-2,2-2,2.31.34,3.76,1.82,1.12,1.84,2.71,1.59,4.43-.28,1.88-1,3.69-2.89,4.37a3.45,3.45,0,0,1-2.73-.56C230.24,239,228,230.64,232,226.51c1.57-1.6,3.15-3.18,4.72-4.77,1-1,2-2,2.92-3,2.1-2.31,1.27-4.2-1.43-5.51a6.48,6.48,0,0,0-3.49-.47c-2.9.4-5.78,1-8.64,1.63a1.47,1.47,0,0,0-.87,1.09q-.19,19-.27,38.08c0,.09.07.17.18.42.45,0,1,.07,1.51.07a380.33,380.33,0,0,0,41.76-1.66c14.89-1.54,29.77-3.19,44.6-5.2,9.59-1.3,19.09-3.31,28.62-5.09,1.37-.25,1.84.08,1.85,1.39q.1,9.7.26,19.41c0,.9-.48,1.06-1.17,1.19-9.73,1.78-19.41,3.9-29.19,5.28q-21,3-42.06,5c-9.5.93-19.07,1.16-28.6,1.71-.69,0-1.38.14-2.07.21H206.87c-1.24-.08-2.48-.19-3.72-.25-7.89-.44-15.82-.6-23.69-1.35-13.26-1.25-26.51-2.77-39.74-4.37-12.3-1.48-24.48-3.69-36.57-6.39-.88-.2-1.23-.49-1.23-1.45,0-3.59-.13-7.17-.17-10.75s0-6.85,0-10.21a606.92,606.92,0,0,0,117,12.64V215.5c-4.91-.87-9.34-2.57-13.13-6.21-.3,3.82-2.87,5.33-5.66,6.58-1.54.69-3.16,1.2-4.69,1.92a39.05,39.05,0,0,0-5.65,3,7.1,7.1,0,0,0-2.49,8.73c.59,1.25,1.34,2.1,2.9,1.46a1.5,1.5,0,0,1,2.07.91,13.19,13.19,0,0,1,1,8.86,1.24,1.24,0,0,1-2,.9,12.26,12.26,0,0,1-2.72-2.06c-2-2.21-3.86-4.54-5.78-6.82a4.87,4.87,0,0,1-1.14-3.89c.44-3.5.79-7,1.34-10.48a13.56,13.56,0,0,1,5.38-8.84c.79-.6,1.54-1.27,2.37-1.82a4.29,4.29,0,0,0,2-5.37c-.15-.47-.23-1-.4-1.43-1.87-5-3-10.06-2-15.47a10.37,10.37,0,0,0-1.8-7.53,3.12,3.12,0,0,0-3.94-1.58,9.68,9.68,0,0,0-5.54,3.84c-1.65,2.21-3.72,2.58-6.21,2a3.73,3.73,0,0,1-2.42-5.49,47.62,47.62,0,0,0,3-6.91c1.16-3.5,2.16-7,5.8-8.8-3.16-4.19-3.28-4.82-1.14-6.69l3.84,5.32c.28-4.72.9-5.82,3.67-6.47v4.28h4.38a13.57,13.57,0,0,1,10.68,4.8,43.37,43.37,0,0,0,3.39,3.77c1.71,1.56,3.56,3,5.4,4.37a21,21,0,0,0,2.24,1.33l-.06.44-3.77.35-.06.42a49.71,49.71,0,0,0,11.15,4.4V143.15c-1.21,0-2.35,0-3.48,0-11-.43-22-.65-33-1.39-10.22-.68-20.42-1.75-30.58-3-9.43-1.13-18.82-2.56-28.19-4.1-7.89-1.31-15.72-3-23.58-4.47Zm119,59-.49-2.29-2.63.75a5.78,5.78,0,0,0,1.94,1.28A7.82,7.82,0,0,0,218.93,181.48Z"/><path class="a9cd19f8-e6cd-4c40-b800-47de37da5d70" d="M252.46,240.83a28.53,28.53,0,0,1-3.28-1.57,9.6,9.6,0,0,1-2-1.94c-2.74-3.14-2.85-4.5-.87-8.15,1-1.92,1.76-4.09,3.13-5.73a14.62,14.62,0,0,1,4.78-3.37c.44-.23,1.71.74,2.29,1.43a2,2,0,0,1-.38,1.88c-1.46,1.42-3.12,2.63-4.64,4a5.72,5.72,0,0,0-2.2,4.84c.13,1.75.63,2.37,2.36,2.69s3.25,3.48,2.22,5C253.58,240.33,253,240.5,252.46,240.83Z"/><path class="a9cd19f8-e6cd-4c40-b800-47de37da5d70" d="M207.76,217a13.2,13.2,0,0,1-1.55,2.12c-1.58,1.51-3.3,2.86-4.92,4.33a3.89,3.89,0,0,0-1,4.24c.38,1.33,1,2.32,2.67,2.3a2,2,0,0,1,1.41,1.07,9.63,9.63,0,0,1,.63,2.88c.12,1.7-.53,2.28-2.15,1.69a11.17,11.17,0,0,1-7-7,3.21,3.21,0,0,1,.33-2.25,61.85,61.85,0,0,1,4.53-8,21.52,21.52,0,0,1,4.83-4.14C206.49,213.48,207.72,214.75,207.76,217Z"/><path class="b1dbbe8c-f7c5-4827-a186-70f3c6c830d3" d="M121.6,217.62c-2.87-.07-5.34-3.56-4.3-5.8a48.11,48.11,0,0,1,3.26-5.65,3.5,3.5,0,0,1,1.57-1.31,1.29,1.29,0,0,1,1.66,1.94,7.5,7.5,0,0,1-1.6,1.52,16.41,16.41,0,0,0-2.07,1.92,2.49,2.49,0,0,0,1.16,4.1,2,2,0,0,1,1.28,2.41C122.49,217.15,121.8,217.45,121.6,217.62Z"/><path class="b1dbbe8c-f7c5-4827-a186-70f3c6c830d3" d="M148.1,215.74a10.22,10.22,0,0,1,.62-1.88,21,21,0,0,1,2.3-4,7.72,7.72,0,0,1,2.83-1.72c.29-.14,1,.19,1.22.5s0,.91-.28,1.18c-1,1.07-2.14,2-3.2,3.08-1.29,1.25-1.46,2.12-.58,3.56.25.4.8.61,1.19.93s1.07.65,1.18,1.08a7.34,7.34,0,0,1-.1,2.13,6.1,6.1,0,0,1-2.22-.3A5.27,5.27,0,0,1,148.1,215.74Z"/><circle class="a9cd19f8-e6cd-4c40-b800-47de37da5d70" cx="223.58" cy="6.27" r="6.27"/><path class="b1dbbe8c-f7c5-4827-a186-70f3c6c830d3" d="M7.7,347.29A23.19,23.19,0,0,1,0,343.67l3.4-7.54A23.21,23.21,0,0,0,10,339.41a25,25,0,0,0,7.67,1.23q4.26,0,6.3-1.26A3.84,3.84,0,0,0,26,336a3.24,3.24,0,0,0-1.2-2.57,9.41,9.41,0,0,0-3.09-1.64q-1.89-.62-5.1-1.36a70.46,70.46,0,0,1-8.1-2.34,13.22,13.22,0,0,1-5.41-3.77A10.21,10.21,0,0,1,.87,317.4a12.05,12.05,0,0,1,2-6.83,13.64,13.64,0,0,1,6.15-4.85,25.12,25.12,0,0,1,10-1.79,33.27,33.27,0,0,1,8.1,1,24.2,24.2,0,0,1,6.92,2.84L31,315.36A24.22,24.22,0,0,0,19,312c-2.81,0-4.88.46-6.21,1.36a4.17,4.17,0,0,0-2,3.59,3.51,3.51,0,0,0,2.31,3.31,36.68,36.68,0,0,0,7.08,2.13,68.28,68.28,0,0,1,8.1,2.35,13.43,13.43,0,0,1,5.41,3.71A10,10,0,0,1,36,335.27,11.8,11.8,0,0,1,33.9,342a14,14,0,0,1-6.21,4.86,25.4,25.4,0,0,1-10.07,1.79A35.22,35.22,0,0,1,7.7,347.29Z"/><path class="b1dbbe8c-f7c5-4827-a186-70f3c6c830d3" d="M42.83,304.67h10v43.27h-10Z"/><path class="b1dbbe8c-f7c5-4827-a186-70f3c6c830d3" d="M102.48,347.94l-.07-26L89.68,343.36H85.17L72.5,322.53v25.41H63.1V304.67h8.29l16.19,26.89,16-26.89h8.22l.12,43.27Z"/><path class="b1dbbe8c-f7c5-4827-a186-70f3c6c830d3" d="M150.84,306.59a14.82,14.82,0,0,1,6.52,5.44,16.28,16.28,0,0,1,0,16.65,14.56,14.56,0,0,1-6.52,5.44,24.31,24.31,0,0,1-10,1.89h-8.72v11.93h-10V304.67h18.73A24,24,0,0,1,150.84,306.59Zm-3.68,19.31a7.75,7.75,0,0,0,0-11.12q-2.34-1.95-6.86-1.95h-8.16v15h8.16Q144.82,327.85,147.16,325.9Z"/><path class="b1dbbe8c-f7c5-4827-a186-70f3c6c830d3" d="M166.75,304.67h10v35.11h21.69v8.16H166.75Z"/><path class="b1dbbe8c-f7c5-4827-a186-70f3c6c830d3" d="M237.59,339.9v8h-33.5V304.67h32.69v8H214v9.39h20.08v7.79H214v10Z"/><path class="b1dbbe8c-f7c5-4827-a186-70f3c6c830d3" d="M263.05,304.67h10v35.11h21.7v8.16H263.05Z"/><path class="b1dbbe8c-f7c5-4827-a186-70f3c6c830d3" d="M308.45,345.77a21.48,21.48,0,0,1-8.47-8,23,23,0,0,1,0-22.93,21.57,21.57,0,0,1,8.47-8,26.82,26.82,0,0,1,24.26,0,22.07,22.07,0,0,1,0,38.94,26.74,26.74,0,0,1-24.26,0Zm19.06-7.38a12.7,12.7,0,0,0,4.86-4.92,15.48,15.48,0,0,0,0-14.34,12.74,12.74,0,0,0-4.86-4.91,14.48,14.48,0,0,0-13.84,0,12.65,12.65,0,0,0-4.85,4.91,15.48,15.48,0,0,0,0,14.34,12.61,12.61,0,0,0,4.85,4.92,14.48,14.48,0,0,0,13.84,0Z"/><path class="b1dbbe8c-f7c5-4827-a186-70f3c6c830d3" d="M381,325.62h9.15v17.56a26.25,26.25,0,0,1-8.16,4.08,31.93,31.93,0,0,1-9.34,1.42,25.25,25.25,0,0,1-12.11-2.88,21.38,21.38,0,0,1-8.44-8,23.23,23.23,0,0,1,0-23.05,21.38,21.38,0,0,1,8.5-8,25.88,25.88,0,0,1,12.24-2.87,26.72,26.72,0,0,1,10.32,1.92,20.38,20.38,0,0,1,7.79,5.56l-6.43,5.93a14.88,14.88,0,0,0-11.19-4.88,15.29,15.29,0,0,0-7.35,1.73,12.45,12.45,0,0,0-5,4.88,15.38,15.38,0,0,0,0,14.4,12.73,12.73,0,0,0,5,4.92,14.78,14.78,0,0,0,7.26,1.76,16.22,16.22,0,0,0,7.79-1.86Z"/><path class="b1dbbe8c-f7c5-4827-a186-70f3c6c830d3" d="M408.26,345.77a21.52,21.52,0,0,1-8.46-8,23,23,0,0,1,0-22.93,21.61,21.61,0,0,1,8.46-8,26.82,26.82,0,0,1,24.26,0,22.06,22.06,0,0,1,0,38.94,26.74,26.74,0,0,1-24.26,0Zm19.07-7.38a12.61,12.61,0,0,0,4.85-4.92,15.41,15.41,0,0,0,0-14.34,12.65,12.65,0,0,0-4.85-4.91,14.48,14.48,0,0,0-13.84,0,12.65,12.65,0,0,0-4.85,4.91,15.41,15.41,0,0,0,0,14.34,12.61,12.61,0,0,0,4.85,4.92,14.48,14.48,0,0,0,13.84,0Z"/><path class="a9cd19f8-e6cd-4c40-b800-47de37da5d70" d="M68.3,389a12,12,0,0,1-4.63-4.51,13.2,13.2,0,0,1,0-12.89,12,12,0,0,1,4.64-4.51,14.47,14.47,0,0,1,11.73-.7A10.42,10.42,0,0,1,84,369l-1.66,1.66A9.86,9.86,0,0,0,75,367.77a10.8,10.8,0,0,0-5.34,1.34,9.85,9.85,0,0,0-3.76,3.68,10.72,10.72,0,0,0,0,10.45,9.85,9.85,0,0,0,3.76,3.68A10.8,10.8,0,0,0,75,388.26a9.72,9.72,0,0,0,7.31-3L84,387a10.58,10.58,0,0,1-4,2.7A14.32,14.32,0,0,1,68.3,389Z"/><path class="a9cd19f8-e6cd-4c40-b800-47de37da5d70" d="M122.12,383.77H108.34l-3,6.61h-2.72L114,365.65h2.57l11.31,24.73h-2.76Zm-1-2.12-5.93-13.28-5.94,13.28Z"/><path class="a9cd19f8-e6cd-4c40-b800-47de37da5d70" d="M166.48,390.38l-5.65-7.95a17.91,17.91,0,0,1-2,.11h-6.64v7.84H149.6V365.65h9.25q4.74,0,7.42,2.26a7.7,7.7,0,0,1,2.69,6.22,8,8,0,0,1-1.47,4.89,8.13,8.13,0,0,1-4.19,2.88l6,8.48Zm-2.08-11.69a6.39,6.39,0,0,0,0-9.17,8.63,8.63,0,0,0-5.62-1.61h-6.57v12.4h6.57A8.58,8.58,0,0,0,164.4,378.69Z"/><path class="a9cd19f8-e6cd-4c40-b800-47de37da5d70" d="M197,389a12,12,0,0,1-4.66-4.51,13.15,13.15,0,0,1,0-12.86,12.08,12.08,0,0,1,4.66-4.5,14.36,14.36,0,0,1,13.29,0,12.11,12.11,0,0,1,4.64,4.51,13.07,13.07,0,0,1,0,12.89,12.11,12.11,0,0,1-4.64,4.51A14.36,14.36,0,0,1,197,389Zm12-2a9.55,9.55,0,0,0,3.71-3.67,10.93,10.93,0,0,0,0-10.49,9.65,9.65,0,0,0-3.71-3.68,11.32,11.32,0,0,0-10.61,0,9.75,9.75,0,0,0-3.75,3.68,10.79,10.79,0,0,0,0,10.49,9.65,9.65,0,0,0,3.75,3.67,11.25,11.25,0,0,0,10.61,0Z"/><path class="a9cd19f8-e6cd-4c40-b800-47de37da5d70" d="M242.58,387.83c-1.79-1.83-2.69-4.51-2.69-8V365.65h2.62v14.06c0,2.87.64,5,1.94,6.43a8.55,8.55,0,0,0,11.27,0c1.29-1.41,1.94-3.56,1.94-6.43V365.65h2.54v14.17c0,3.5-.89,6.18-2.66,8a11.52,11.52,0,0,1-15,0Z"/><path class="a9cd19f8-e6cd-4c40-b800-47de37da5d70" d="M287.28,389.71a9.8,9.8,0,0,1-3.9-2.33l1-2a9.77,9.77,0,0,0,3.57,2.17,12.86,12.86,0,0,0,4.59.83,8.39,8.39,0,0,0,5-1.21A3.76,3.76,0,0,0,299.2,384a3.15,3.15,0,0,0-.9-2.36,6,6,0,0,0-2.21-1.36,33.57,33.57,0,0,0-3.63-1,41.84,41.84,0,0,1-4.46-1.36,7.46,7.46,0,0,1-2.84-2,5.31,5.31,0,0,1-1.18-3.64,6.18,6.18,0,0,1,1-3.41,6.79,6.79,0,0,1,3-2.45,12.35,12.35,0,0,1,5.09-.92,14.91,14.91,0,0,1,4.15.58,12,12,0,0,1,3.52,1.61l-.89,2.08a12.7,12.7,0,0,0-6.78-2,7.94,7.94,0,0,0-4.89,1.26,3.86,3.86,0,0,0-1.64,3.23,3.21,3.21,0,0,0,.9,2.38,5.9,5.9,0,0,0,2.26,1.38c.9.32,2.12.67,3.65,1a36.1,36.1,0,0,1,4.4,1.33,7.23,7.23,0,0,1,2.85,2,5.26,5.26,0,0,1,1.16,3.58,6.08,6.08,0,0,1-1,3.41,6.8,6.8,0,0,1-3.1,2.44,12.9,12.9,0,0,1-5.12.9A15.86,15.86,0,0,1,287.28,389.71Z"/><path class="a9cd19f8-e6cd-4c40-b800-47de37da5d70" d="M342.62,388.12v2.26H325.13V365.65h17v2.26H327.75v8.8h12.78v2.22H327.75v9.19Z"/><path class="a9cd19f8-e6cd-4c40-b800-47de37da5d70" d="M366.43,365.65H369v22.47h13.85v2.26H366.43Z"/></g></g></svg>